# xmcd
#
# Track frame offsets:
#	182
#	18482
#	38445
#	58582
#	85357
#	108095
#	136757
#	158920
#	181320
#	196732
#	224907
#	240807
#	264932
#	283207
#	306182
#	331195
#	342082
#
# Disc length: 4738 seconds
#
# Revision: 1
# Processed by: cddbd v1.5.2PL0 Copyright (c) Steve Scherf et al.
# Submitted via: audiograbber 1.83.01
#
DISCID=e4128011
DTITLE=Luciano Pavarotti - Pavarotti &Friends Together For The Children Of Bosn
DTITLE=ia
DYEAR=1996
DGENRE=
TTITLE0=Zucchero - Per colpa di chi?
TTITLE1=Luciano Pavarotti - Jovanotti - Serenata Rap - Mattinata
TTITLE2=Nenad Bach - Can we go higher?
TTITLE3=Luciano Pavarotti - Simon Le Bon  - Ordinary world
TTITLE4=Gam Gam - Clap clap
TTITLE5=Brian Eno, Bono and The Edge Luciano Pavarotti - Miss Sarajavo
TTITLE6=Luciano Pavarotti - Zucchero - Cosi celeste
TTITLE7=Dolores O'Riordan - Simon Le Bon - Linger
TTITLE8=Luciano Pavarotti - Meat Loaf - Come back to sorrento
TTITLE9=Jovanotti - Penso positivo
TTITLE10=Luciano Pavarotti - Michael Bolton - Vesti la giubba
TTITLE11=Meat Loaf - Heaven can wait
TTITLE12=Luciano Pavarotti - Dolores O'Riordan - Ave Maria
TTITLE13=Brian Eno, Bono and The Edge - One
TTITLE14=The Chieftains - The long black veil
TTITLE15=Luciano Pavarotti - The Chieftains - Funiculi, funicula
TTITLE16=Ensemble - Nessun dorma
EXTD=
EXTT0=Zucchero\n
EXTT1=Luciano Pavarotti - Jovanotti
EXTT2=Nened Back
EXTT3=Luciano Pavarotti - Simon Le Bon
EXTT4=Gam Gam
EXTT5=Brian Eno, Bono and The Edge - Luciano Pavarotti
EXTT6=Luciano Pavarotti - Zucchero
EXTT7=Delores O'Riordan - Simon Le Bon
EXTT8=Lucian Pavarotti - Meat Loaf
EXTT9=Jovanotti
EXTT10=Lucian Pavarotti - Michael Bolton
EXTT11=Meat Loaf
EXTT12=Luciano Pavarotti - Dolores O'Riordan
EXTT13=Brian Eno, Bono and The Edge
EXTT14=The Cheiftans
EXTT15=Luciano Pavarotti - The Chieftans
EXTT16=Ensemble
PLAYORDER=
